<svg width="2728" height="526" viewBox="0 0 2728 526" fill="none" xmlns="http://www.w3.org/2000/svg">
<path fill-rule="evenodd" clip-rule="evenodd" d="M786.106 524.457C751.567 518.295 716.51 500.496 692.266 476.81L676.844 461.745V489.198V516.652H642.101H607.355L607.903 267.408L608.448 18.1636L649.585 17.6285L690.722 17.0913V112.524V207.954L705.357 194.056C734.7 166.19 772.209 151.848 815.299 152.022C914.391 152.42 990.176 227.509 995.481 330.544C998.716 393.393 970.803 456.954 924.973 491.093C908.219 503.574 883.174 515.728 863.585 520.887C845.962 525.527 803.156 527.499 786.106 524.457ZM822.077 452.3C859.301 444.415 889.72 416.258 903.168 377.247C908.986 360.366 910.328 328.239 905.987 309.75C896.887 271.001 867.32 239.518 829.632 228.45C813.132 223.604 782.233 224.27 765.942 229.822C715.933 246.868 688.365 290.475 691.239 347.984C692.903 381.287 703.063 404.045 726.052 425.968C751.46 450.197 786.566 459.824 822.077 452.3ZM1573.83 523.795C1550.74 519.387 1537.24 514.8 1517.36 504.613C1473.33 482.041 1445.11 448.235 1428.01 397.569C1422.39 380.934 1421.6 375.767 1420.75 350.159C1419.68 317.756 1422.39 299.596 1432.47 271.709C1439.78 251.474 1458.54 222.332 1474.44 206.515C1517.53 163.637 1582.6 144.05 1645.53 155.021C1709.73 166.216 1756.41 200.091 1772.29 247.024C1780.19 270.371 1780.62 269.643 1755.82 274.741C1744.1 277.151 1727.57 280.717 1719.08 282.664L1703.65 286.205L1698.4 275.072C1695.5 268.928 1688.15 258.93 1681.99 252.762C1651.28 221.991 1602.01 215.434 1560.3 236.567C1547.47 243.066 1530.65 258.988 1521.07 273.695C1497.72 309.538 1496.23 363.353 1517.56 400.872C1544.87 448.903 1605.5 468.428 1654.22 444.885C1670.09 437.217 1688.76 418.982 1696.91 403.183L1702.79 391.792L1740.96 391.786C1772.19 391.782 1779.12 392.281 1779.12 394.533C1779.12 400.709 1768.76 432.422 1762.99 443.904C1751.68 466.422 1731.47 487.305 1705.52 503.301C1696.93 508.591 1676.04 516.537 1659.18 520.929C1638.9 526.209 1594.31 527.706 1573.83 523.795ZM1950.28 523.763C1918.07 517.613 1887.3 503.818 1863.36 484.8C1808.22 440.992 1783.33 362.699 1801.97 291.688C1816.9 234.825 1857.24 188.084 1909.83 166.717C1936.83 155.748 1951.95 153.078 1987.28 153.047C2016.76 153.017 2021.89 153.54 2039.18 158.345C2074.47 168.148 2097.87 181.156 2121.81 204.267C2147.66 229.215 2163.73 256.152 2173.13 290.294C2177.8 307.223 2178.43 313.086 2178.4 339.257C2178.37 370.344 2175.47 386.736 2165.5 412.193C2144.97 464.652 2097.47 505.568 2039.35 520.846C2019.24 526.132 1970.96 527.712 1950.28 523.763ZM2022.8 448.596C2058.17 436.297 2084.94 404.523 2093.35 364.85C2106.08 304.777 2072.55 244.824 2017.02 228.385C2002.7 224.145 1973.85 224.145 1959.53 228.385C1922.31 239.403 1893.51 269.635 1883.17 308.535C1879.3 323.094 1879.41 355.332 1883.37 370.685C1891.62 402.598 1913.99 430.688 1941.68 443.912C1949.86 447.817 1961.01 451.916 1966.47 453.02C1981.76 456.116 2006.84 454.145 2022.8 448.596ZM1309.67 516.608C1271.65 506.65 1248.3 483.732 1238.54 446.804C1235.76 436.259 1235.15 419.15 1234.45 332.816L1233.64 231.235H1203.06H1172.47V196.549V161.863H1203.16H1233.85L1234.39 118.753L1234.92 75.6434L1274.08 75.1062L1313.23 74.5691V118.216V161.863H1356.84H1400.46V196.549V231.235H1356.84H1313.23V320.331C1313.23 379.057 1313.99 413.006 1315.47 419.929C1318.34 433.387 1329.92 445.736 1343 449.297C1351.52 451.616 1377.91 450.948 1394.02 448.007L1400.46 446.83V481.482V516.132L1382.98 518.374C1356.52 521.767 1326.61 521.046 1309.67 516.608ZM1049.56 339.257V161.863H1089.21H1128.86V339.257V516.652H1089.21H1049.56V339.257ZM2225.18 339.257V161.863H2265.82H2306.47V339.257V516.652H2265.82H2225.18V339.257ZM2377.84 339.257V161.863H2418.48H2459.12V182.914V203.966L2472.7 191.158C2493.9 171.163 2514.46 160.967 2546.03 154.797C2575.59 149.017 2614.05 152.603 2643.16 163.849C2674.06 175.791 2695.99 195.572 2709.89 224.066C2725.27 255.573 2725.28 255.622 2726.22 394.259L2727.05 516.652H2686.35H2645.66L2645.07 403.179C2644.49 290.231 2644.46 289.646 2639.89 276.987C2627.05 241.437 2600.85 224.601 2558.24 224.54C2517.61 224.48 2483.12 244.017 2468.26 275.508C2457.76 297.777 2457.21 304.676 2457.17 415.071L2457.14 516.652H2417.49H2377.84V339.257ZM1070.62 99.4915C1051.26 92.588 1036.94 71.9072 1037.13 51.1213C1037.32 31.0669 1047.79 14.3561 1066.14 4.84024C1077.44 -1.02071 1098.62 -1.17928 1111.04 4.50725C1150.97 22.7957 1151.87 77.7047 1112.56 97.2914C1100.77 103.166 1083.48 104.074 1070.62 99.4915ZM2243.91 97.6958C2226.82 89.7418 2213.29 69.0431 2213.29 50.8676C2213.29 41.0188 2219.15 25.9175 2226.13 17.7553C2250.37 -10.5524 2297.88 -3.93434 2313.65 29.945C2333.53 72.6069 2287.03 117.772 2243.91 97.6958Z" fill="#E9E8E4"/>
<path d="M499 163H444.977C424.419 163 407.044 168.384 392.85 179.152C378.655 189.431 367.398 204.114 359.077 223.203V165.937H293V517H0V18H499V163ZM499 517H359.077V356.825C359.077 325.01 362.258 299.559 368.621 280.47C375.473 260.891 384.774 246.697 396.521 237.887C408.757 229.077 422.707 224.672 438.369 224.672H499V517Z" fill="#EC7F5B"/>
</svg>
